<svg width="800" height="600" xmlns="http://www.w3.org/2000/svg">
  <defs>
    <!-- Patrón repetitivo de 200x200px -->
    <pattern id="bombermanPattern" x="0" y="0" width="200" height="200" patternUnits="userSpaceOnUse">
      
      <!-- Bloque destructible pixelado (estilo retro) -->
      <g opacity="0.25">
        <rect x="10" y="10" width="30" height="30" fill="#4a5568" stroke="#2d3748" stroke-width="2"/>
        <rect x="14" y="14" width="6" height="6" fill="#718096"/>
        <rect x="26" y="14" width="6" height="6" fill="#718096"/>
        <rect x="14" y="26" width="6" height="6" fill="#718096"/>
        <rect x="26" y="26" width="6" height="6" fill="#718096"/>
      </g>
      
      <!-- Bomba pixelada pequeña -->
      <g opacity="0.2">
        <circle cx="170" cy="50" r="12" fill="#1a202c"/>
        <circle cx="170" cy="50" r="10" fill="#2d3748"/>
        <rect x="168" y="38" width="4" height="8" fill="#f59e0b" rx="1"/>
        <circle cx="170" cy="36" r="3" fill="#fbbf24"/>
        <line x1="166" y1="46" x2="174" y2="54" stroke="#4a5568" stroke-width="2"/>
        <line x1="174" y1="46" x2="166" y2="54" stroke="#4a5568" stroke-width="2"/>
      </g>
      
      <!-- Explosión estilizada (forma de cruz pixelada) -->
      <g opacity="0.18">
        <rect x="95" y="160" width="10" height="10" fill="#7c3aed"/>
        <rect x="85" y="160" width="8" height="10" fill="#8b5cf6"/>
        <rect x="107" y="160" width="8" height="10" fill="#8b5cf6"/>
        <rect x="95" y="150" width="10" height="8" fill="#8b5cf6"/>
        <rect x="95" y="172" width="10" height="8" fill="#8b5cf6"/>
        <circle cx="100" cy="165" r="4" fill="#a78bfa"/>
      </g>
      
      <!-- Personaje Bomberman minimalista -->
      <g opacity="0.22">
        <rect x="150" y="160" width="20" height="24" fill="#f8fafc" rx="2"/>
        <rect x="152" y="162" width="6" height="6" fill="#1e293b"/>
        <rect x="162" y="162" width="6" height="6" fill="#1e293b"/>
        <rect x="155" y="172" width="10" height="3" fill="#1e293b" rx="1"/>
        <rect x="148" y="184" width="6" height="8" fill="#3b82f6"/>
        <rect x="166" y="184" width="6" height="8" fill="#3b82f6"/>
      </g>
      
      <!-- Bloque destructible adicional (variación) -->
      <g opacity="0.2">
        <rect x="60" y="120" width="25" height="25" fill="#475569" stroke="#334155" stroke-width="1.5"/>
        <rect x="63" y="123" width="5" height="5" fill="#64748b"/>
        <rect x="73" y="123" width="5" height="5" fill="#64748b"/>
        <rect x="63" y="133" width="5" height="5" fill="#64748b"/>
        <rect x="73" y="133" width="5" height="5" fill="#64748b"/>
      </g>
      
      <!-- Bomba pequeña adicional -->
      <g opacity="0.15">
        <circle cx="30" cy="180" r="8" fill="#0f172a"/>
        <circle cx="30" cy="180" r="6" fill="#1e293b"/>
        <rect x="28" y="172" width="4" height="6" fill="#f97316" rx="1"/>
        <circle cx="30" cy="170" r="2" fill="#fb923c"/>
      </g>
      
      <!-- Explosión adicional (pequeña) -->
      <g opacity="0.15">
        <rect x="180" y="130" width="8" height="8" fill="#6366f1"/>
        <rect x="172" y="130" width="6" height="8" fill="#818cf8"/>
        <rect x="190" y="130" width="6" height="8" fill="#818cf8"/>
        <rect x="180" y="122" width="8" height="6" fill="#818cf8"/>
        <rect x="180" y="140" width="8" height="6" fill="#818cf8"/>
      </g>
      
      <!-- Elementos decorativos pixelados -->
      <g opacity="0.12">
        <rect x="120" y="80" width="4" height="4" fill="#5b21b6"/>
        <rect x="130" y="90" width="4" height="4" fill="#6d28d9"/>
        <rect x="40" y="70" width="4" height="4" fill="#7c3aed"/>
        <rect x="190" y="190" width="4" height="4" fill="#8b5cf6"/>
      </g>
      
    </pattern>
    
    <!-- Gradiente de fondo base -->
    <linearGradient id="bgGradient" x1="0%" y1="0%" x2="100%" y2="100%">
      <stop offset="0%" style="stop-color:#0f172a;stop-opacity:1" />
      <stop offset="50%" style="stop-color:#1e1b4b;stop-opacity:1" />
      <stop offset="100%" style="stop-color:#1e293b;stop-opacity:1" />
    </linearGradient>
  </defs>
  
  <!-- Fondo base con gradiente -->
  <rect width="800" height="600" fill="url(#bgGradient)"/>
  
  <!-- Aplicar el patrón Bomberman -->
  <rect width="800" height="600" fill="url(#bombermanPattern)"/>
</svg>
